<?xml version="1.0" standalone="no"?>
<!DOCTYPE svg PUBLIC "-//W3C//DTD SVG 20010904//EN"
 "http://www.w3.org/TR/2001/REC-SVG-20010904/DTD/svg10.dtd">
<svg version="1.0" xmlns="http://www.w3.org/2000/svg"
 width="640.000000pt" height="750.000000pt" viewBox="0 0 640.000000 750.000000"
 preserveAspectRatio="xMidYMid meet">

<g transform="translate(0.000000,750.000000) scale(0.100000,-0.100000)"
fill="#000000" stroke="none">
<path d="M4112 7124 c-41 -29 -23 -84 28 -84 32 0 50 17 50 46 0 20 -32 54
-50 54 -3 0 -16 -7 -28 -16z"/>
<path d="M1430 7055 l0 -34 78 -3 77 -3 3 -130 c1 -71 0 -140 -3 -153 -15 -60
-81 -79 -144 -41 -36 22 -36 21 -62 -24 -35 -62 145 -106 222 -54 62 41 69 68
69 285 l0 192 -120 0 -120 0 0 -35z"/>
<path d="M4810 7030 c0 -57 -1 -60 -25 -60 -21 0 -25 -5 -25 -30 0 -25 4 -30
24 -30 l24 0 4 -131 3 -131 33 -29 c25 -23 42 -29 77 -29 49 0 95 17 95 35 0
6 -6 19 -13 29 -10 14 -17 15 -41 6 -23 -8 -34 -7 -52 5 -23 15 -24 21 -24
130 l0 115 50 0 c49 0 50 1 50 30 0 29 -1 30 -50 30 l-50 0 0 60 0 60 -40 0
-40 0 0 -60z"/>
<path d="M1880 6971 c-38 -12 -90 -41 -90 -49 0 -4 7 -15 15 -26 13 -18 16
-18 55 -2 42 17 107 21 126 8 15 -10 34 -47 34 -66 0 -13 -13 -16 -69 -16 -94
0 -127 -8 -161 -40 -23 -21 -30 -37 -30 -65 0 -48 23 -91 60 -110 42 -22 128
-19 168 5 40 25 42 25 42 0 0 -16 7 -20 36 -20 l36 0 -4 153 c-3 164 -8 181
-60 212 -33 19 -121 28 -158 16z m138 -232 c4 -33 -30 -76 -68 -84 -68 -15
-119 19 -106 71 8 29 50 43 121 41 46 -2 50 -4 53 -28z"/>
<path d="M2710 6971 c-38 -12 -90 -41 -90 -49 0 -4 7 -15 15 -26 13 -18 16
-18 55 -2 42 17 107 21 126 8 15 -10 34 -47 34 -66 0 -13 -13 -16 -69 -16 -94
0 -127 -8 -161 -40 -23 -21 -30 -37 -30 -65 0 -48 23 -91 60 -110 42 -22 128
-19 168 5 40 25 42 25 42 0 0 -16 7 -20 36 -20 l36 0 -4 153 c-3 164 -8 181
-60 212 -33 19 -121 28 -158 16z m138 -232 c4 -33 -30 -76 -68 -84 -68 -15
-119 19 -106 71 8 29 50 43 121 41 46 -2 50 -4 53 -28z"/>
<path d="M3113 6970 c-43 -14 -83 -63 -83 -104 0 -47 32 -82 98 -106 84 -30
102 -41 102 -61 0 -10 -11 -26 -25 -35 -29 -19 -72 -13 -125 18 l-34 20 -18
-22 c-10 -12 -18 -28 -18 -35 0 -22 94 -55 155 -55 92 0 145 40 145 111 0 58
-37 95 -120 120 -83 25 -100 41 -75 69 22 24 87 27 128 6 26 -14 28 -14 42 14
15 29 14 30 -15 45 -39 20 -115 27 -157 15z"/>
<path d="M3518 6971 c-90 -29 -141 -99 -141 -192 0 -116 75 -189 195 -189 54
0 71 5 113 31 l48 30 -25 25 -25 25 -37 -22 c-72 -42 -161 -10 -186 68 -16 47
-4 87 37 124 33 28 41 31 89 27 31 -3 62 -12 73 -22 18 -16 20 -16 40 10 28
35 27 39 -14 64 -39 24 -124 34 -167 21z"/>
<path d="M3980 6969 c-14 -6 -37 -22 -52 -36 l-28 -27 0 32 c0 31 -2 32 -40
32 l-40 0 0 -190 0 -190 40 0 40 0 0 106 c0 124 14 164 65 188 18 9 38 16 44
16 6 0 11 18 11 40 0 43 -2 44 -40 29z"/>
<path d="M4445 6965 c-16 -8 -38 -25 -47 -36 -18 -21 -18 -21 -18 10 0 30 -2
31 -40 31 l-40 0 0 -260 0 -260 40 0 40 0 0 95 0 96 37 -26 c44 -29 126 -34
172 -10 91 47 129 193 74 285 -41 71 -154 109 -218 75z m95 -68 c35 -18 70
-74 70 -114 0 -73 -48 -123 -118 -123 -37 0 -50 6 -78 34 -29 29 -34 41 -34
80 0 26 7 60 15 76 27 52 93 74 145 47z"/>
<path d="M2160 6968 c0 -2 33 -87 74 -188 l74 -185 48 0 48 0 68 170 c91 226
87 205 40 205 l-39 0 -58 -140 c-32 -78 -59 -139 -62 -137 -2 2 -28 65 -57
138 l-54 134 -41 3 c-23 2 -41 2 -41 0z"/>
<path d="M4100 6780 l0 -190 40 0 40 0 0 190 0 190 -40 0 -40 0 0 -190z"/>
<path d="M2460 3765 c0 -1048 -3 -1395 -12 -1395 -6 0 -50 11 -97 25 -410 119
-880 245 -918 245 -23 0 -13 -594 10 -616 3 -3 83 -25 178 -50 171 -44 231
-61 614 -169 457 -129 720 -197 730 -187 3 3 5 798 5 1767 l0 1762 -82 6 c-46
4 -161 7 -255 7 l-173 0 0 -1395z"/>
<path d="M3498 5153 l-98 -4 0 -1149 c0 -633 3 -1150 8 -1150 7 0 246 42 582
101 96 18 238 44 315 59 77 16 142 26 144 24 7 -7 -18 -527 -26 -534 -4 -4
-71 -24 -148 -44 -77 -20 -214 -57 -305 -81 -91 -25 -252 -67 -358 -94 -106
-27 -195 -50 -197 -53 -6 -6 -17 -597 -11 -607 8 -12 291 56 831 199 121 32
267 70 325 85 155 39 232 65 256 87 23 21 30 55 39 208 3 47 10 137 15 200 19
222 90 1116 96 1208 l6 93 -78 -6 c-44 -3 -241 -26 -439 -50 -198 -25 -399
-48 -446 -51 l-86 -7 -7 203 c-4 111 -4 323 0 471 l7 269 559 0 c544 0 558 0
558 19 0 11 9 104 20 207 11 103 23 236 26 296 l6 108 -748 -2 c-412 -1 -793
-4 -846 -5z"/>
</g>
</svg>
